<svg width="332" height="246" viewBox="0 0 332 246" fill="none" xmlns="http://www.w3.org/2000/svg">
<path d="M88.9668 139.769H108.891V154.662H88.9668V188H70.6211V154.662H5.22754V143.911L69.5361 44.3906H88.9668V139.769ZM25.9404 139.769H70.6211V69.3447L68.4512 73.29L25.9404 139.769Z" fill="#2D3355"/>
<path d="M306.967 139.769H326.891V154.662H306.967V188H288.621V154.662H223.228V143.911L287.536 44.3906H306.967V139.769ZM243.94 139.769H288.621V69.3447L286.451 73.29L243.94 139.769Z" fill="#2D3355"/>
<path opacity="0.4" d="M222.311 100.262C217.811 81.6623 204.611 67.4623 188.011 60.8623C199.311 68.4623 207.911 80.1623 211.411 94.4623C218.811 124.962 200.111 155.662 169.611 163.062C157.711 165.962 145.811 164.862 135.311 160.662C145.811 167.762 158.611 171.362 171.711 170.262L175.411 185.362C173.311 187.262 172.411 190.262 173.111 193.162L182.211 230.662L182.511 231.962L184.011 238.162C185.311 243.362 190.411 246.462 195.611 245.262C200.811 243.962 203.911 238.862 202.711 233.662L201.211 227.462L200.711 225.462L193.311 195.162L192.811 193.162L191.711 188.662C191.011 185.762 188.711 183.562 186.011 182.762L182.511 168.262C211.811 160.162 229.511 130.062 222.311 100.262Z" fill="#2D3355"/>
<path opacity="0.7" d="M109.712 127.462C102.312 96.962 121.012 66.262 151.512 58.862C166.212 55.262 181.012 57.762 193.112 64.762C179.712 53.262 161.212 48.162 142.712 52.662C112.212 60.062 93.5118 90.762 100.912 121.262C104.712 137.062 114.812 149.662 127.912 157.162C119.212 149.762 112.612 139.562 109.712 127.462Z" fill="#AFCDEA"/>
<path d="M174.671 160.746L163.982 163.342L173.894 204.153L184.583 201.557L174.671 160.746Z" fill="#FFD34E"/>
<path d="M175.41 180.762L172.51 181.462C168.11 182.562 165.51 186.962 166.51 191.262L177.41 236.162C178.71 241.362 183.81 244.462 189.01 243.262C194.21 241.962 197.31 236.862 196.11 231.662L185.21 186.762C184.11 182.362 179.71 179.762 175.41 180.762Z" fill="#2D3355"/>
<path d="M174.11 181.062L172.51 181.462C168.11 182.562 165.51 186.962 166.51 191.262L177.41 236.162C178.71 241.362 183.81 244.462 189.01 243.262C189.11 243.262 189.11 243.262 189.21 243.162L174.11 181.062Z" fill="#2D3355"/>
<path d="M169.811 164.062C138.811 171.562 107.511 152.462 100.011 121.562C92.511 90.6619 111.611 59.262 142.511 51.762C173.511 44.262 204.811 63.362 212.311 94.262C219.811 125.262 200.811 156.562 169.811 164.062ZM144.311 59.1619C117.411 65.6619 100.811 92.9619 107.311 119.862C113.811 146.762 141.111 163.362 168.011 156.862C194.911 150.362 211.511 123.062 205.011 96.1619C198.411 69.1619 171.211 52.5619 144.311 59.1619Z" fill="#5F91D9"/>
<path d="M176.01 166.462L174.61 160.862L163.91 163.462L165.31 169.062C167.11 168.762 168.91 168.462 170.71 168.062C172.51 167.562 174.31 167.062 176.01 166.462Z" fill="#E1AE10"/>
<path d="M169.811 164.062C138.811 171.562 107.511 152.462 100.011 121.562C92.511 90.6619 111.611 59.262 142.511 51.762C173.511 44.262 204.811 63.362 212.311 94.262C219.811 125.262 200.811 156.562 169.811 164.062ZM144.311 59.1619C117.411 65.6619 100.811 92.9619 107.311 119.862C113.811 146.762 141.111 163.362 168.011 156.862C194.911 150.362 211.511 123.062 205.011 96.1619C198.411 69.1619 171.211 52.5619 144.311 59.1619Z" fill="#FFD34E"/>
<g opacity="0.6">
<path opacity="0.6" d="M144.31 59.1622C117.41 65.6622 100.81 92.9622 107.31 119.862C113.81 146.762 141.11 163.362 168.01 156.862C194.91 150.362 211.51 123.062 205.01 96.1622C198.41 69.1622 171.21 52.5622 144.31 59.1622Z" fill="#DCEAF9"/>
</g>
<path d="M118.212 121.162C116.612 121.562 114.912 120.562 114.612 118.962C109.012 95.9624 123.212 72.7624 146.112 67.1624C147.712 66.7624 149.412 67.7624 149.712 69.3624C150.112 70.9624 149.112 72.6624 147.512 72.9624C127.812 77.7624 115.612 97.6624 120.412 117.462C120.812 119.062 119.812 120.762 118.212 121.162Z" fill="white"/>
<path d="M186.289 191.316L167.633 195.848L168.105 197.791L186.761 193.26L186.289 191.316Z" fill="white"/>
<path d="M194.075 223.523L175.418 228.055L175.89 229.998L194.547 225.467L194.075 223.523Z" fill="white"/>
</svg>
