<svg width="10" height="10" viewBox="0 0 10 10" fill="none" xmlns="http://www.w3.org/2000/svg">
<g clip-path="url(#clip0)">
<path d="M5.91616 5.00877L9.80997 1.11484C10.0634 0.86156 10.0634 0.452035 9.80997 0.198752C9.55669 -0.0545318 9.14716 -0.0545318 8.89388 0.198752L4.99995 4.09268L1.10614 0.198752C0.852742 -0.0545318 0.443335 -0.0545318 0.190052 0.198752C-0.0633506 0.452035 -0.0633506 0.86156 0.190052 1.11484L4.08386 5.00877L0.190052 8.90269C-0.0633506 9.15597 -0.0633506 9.5655 0.190052 9.81878C0.316278 9.94513 0.482247 10.0086 0.648098 10.0086C0.813948 10.0086 0.979799 9.94513 1.10614 9.81878L4.99995 5.92486L8.89388 9.81878C9.02022 9.94513 9.18607 10.0086 9.35192 10.0086C9.51777 10.0086 9.68362 9.94513 9.80997 9.81878C10.0634 9.5655 10.0634 9.15597 9.80997 8.90269L5.91616 5.00877Z" fill="#D4D4D4"/>
</g>
<defs>
<clipPath id="clip0">
<rect width="10" height="10" fill="white"/>
</clipPath>
</defs>
</svg>
