<svg width="67" height="67" viewBox="0 0 67 67" fill="none" xmlns="http://www.w3.org/2000/svg">
<path d="M40.4792 58.625H18.1458C17.3753 58.625 16.75 57.9997 16.75 57.2292C16.75 56.4587 17.3753 55.8333 18.1458 55.8333H39.0833V19.5417H2.79167V55.8333H6.97917C7.74967 55.8333 8.375 56.4587 8.375 57.2292C8.375 57.9997 7.74967 58.625 6.97917 58.625H1.39583C0.625333 58.625 0 57.9997 0 57.2292V18.1458C0 17.3753 0.625333 16.75 1.39583 16.75H40.4792C41.2497 16.75 41.875 17.3753 41.875 18.1458V57.2292C41.875 57.9997 41.2497 58.625 40.4792 58.625Z" fill="#2D3355"/>
<path d="M40.4791 41.875C39.7086 41.875 39.0833 41.2497 39.0833 40.4792V26.5208C39.0833 25.7503 39.7086 25.125 40.4791 25.125H50.0768C53.2845 25.125 56.0677 27.2969 56.8494 30.4124L58.583 37.3497C58.7673 38.0979 58.3122 38.8544 57.5669 39.0415C56.8103 39.2201 56.0594 38.7707 55.8751 38.0253L54.1415 31.088C53.6753 29.2204 52.0031 27.9167 50.0768 27.9167H41.8749V40.4792C41.8749 41.2497 41.2496 41.875 40.4791 41.875Z" fill="#2D3355"/>
<path d="M65.6041 58.6253H58.6249C57.8544 58.6253 57.2291 58 57.2291 57.2295C57.2291 56.459 57.8544 55.8337 58.6249 55.8337H64.2083V44.0193L56.8075 39.0837H41.8749V55.8337H47.4583C48.2288 55.8337 48.8541 56.459 48.8541 57.2295C48.8541 58 48.2288 58.6253 47.4583 58.6253H40.4791C39.7086 58.6253 39.0833 58 39.0833 57.2295V37.6878C39.0833 36.9173 39.7086 36.292 40.4791 36.292H57.2291C57.5055 36.292 57.7735 36.3729 58.0024 36.5265L66.3774 42.1098C66.7654 42.3694 66.9999 42.805 66.9999 43.2712V57.2295C66.9999 58 66.3746 58.6253 65.6041 58.6253Z" fill="#2D3355"/>
<path d="M53.0417 64.2083C49.192 64.2083 46.0625 61.0789 46.0625 57.2292C46.0625 53.3795 49.192 50.25 53.0417 50.25C56.8914 50.25 60.0208 53.3795 60.0208 57.2292C60.0208 61.0789 56.8914 64.2083 53.0417 64.2083ZM53.0417 53.0417C50.733 53.0417 48.8542 54.9205 48.8542 57.2292C48.8542 59.5379 50.733 61.4167 53.0417 61.4167C55.3504 61.4167 57.2292 59.5379 57.2292 57.2292C57.2292 54.9205 55.3504 53.0417 53.0417 53.0417Z" fill="#2D3355"/>
<path d="M12.5624 64.2083C8.71271 64.2083 5.58325 61.0789 5.58325 57.2292C5.58325 53.3795 8.71271 50.25 12.5624 50.25C16.4121 50.25 19.5416 53.3795 19.5416 57.2292C19.5416 61.0789 16.4121 64.2083 12.5624 64.2083ZM12.5624 53.0417C10.2537 53.0417 8.37492 54.9205 8.37492 57.2292C8.37492 59.5379 10.2537 61.4167 12.5624 61.4167C14.8711 61.4167 16.7499 59.5379 16.7499 57.2292C16.7499 54.9205 14.8711 53.0417 12.5624 53.0417Z" fill="#2D3355"/>
</svg>
