<svg width="64" height="16" viewBox="0 0 64 16" fill="none" xmlns="http://www.w3.org/2000/svg">
<path d="M5.648 12.384V11.152C4.10133 11.1093 2.912 10.624 2.08 9.696C1.25867 8.768 0.848 7.648 0.848 6.336C0.848 5.024 1.25867 3.89867 2.08 2.96C2.912 2.02133 4.10133 1.53067 5.648 1.488V0.447999H7.28V1.488C8.83733 1.53067 10.0267 2.02133 10.848 2.96C11.68 3.888 12.096 5.008 12.096 6.32C12.096 7.632 11.68 8.75733 10.848 9.696C10.0267 10.624 8.83733 11.1093 7.28 11.152V12.384H5.648ZM5.648 9.664V2.992C4.624 3.01333 3.84533 3.344 3.312 3.984C2.78933 4.61333 2.528 5.392 2.528 6.32C2.528 7.25867 2.78933 8.048 3.312 8.688C3.84533 9.31733 4.624 9.64267 5.648 9.664ZM7.28 2.992V9.664C8.31467 9.64267 9.09333 9.31733 9.616 8.688C10.1493 8.048 10.416 7.25867 10.416 6.32C10.416 5.38133 10.1493 4.59733 9.616 3.968C9.09333 3.33867 8.31467 3.01333 7.28 2.992ZM14.0095 12V4.144H15.6095V9.392L19.2415 4.144H20.7455V12H19.1455V6.736L15.5135 12H14.0095ZM22.1005 11.968V10.528C22.1965 10.56 22.3032 10.576 22.4205 10.576C22.8898 10.576 23.2258 10.2667 23.4285 9.648C23.6418 9.02933 23.7592 8.04267 23.7805 6.688L23.8125 4.144H29.4765V12H27.8765V5.584H25.3645L25.3325 6.784C25.3218 7.264 25.3005 7.68533 25.2685 8.048C25.2365 8.41067 25.1832 8.81067 25.1085 9.248C25.0445 9.67467 24.9485 10.0427 24.8205 10.352C24.6925 10.6613 24.5325 10.9493 24.3405 11.216C24.1485 11.4827 23.9032 11.6853 23.6045 11.824C23.3165 11.9627 22.9858 12.032 22.6125 12.032C22.3992 12.032 22.2285 12.0107 22.1005 11.968ZM31.6189 12V4.144H33.2189V6.56H35.1389C36.0029 6.56 36.6855 6.81067 37.1869 7.312C37.6989 7.80267 37.9549 8.45867 37.9549 9.28C37.9549 10.08 37.7149 10.736 37.2349 11.248C36.7549 11.7493 36.0829 12 35.2189 12H31.6189ZM33.2189 10.608H34.9629C35.4002 10.608 35.7362 10.4907 35.9709 10.256C36.2162 10.0213 36.3389 9.696 36.3389 9.28C36.3389 8.864 36.2162 8.53867 35.9709 8.304C35.7362 8.06933 35.4002 7.952 34.9629 7.952H33.2189V10.608ZM40.4983 12V5.584H38.1783V4.144H44.4023V5.584H42.0983V12H40.4983ZM49.7115 3.936C50.6928 3.936 51.5035 4.31467 52.1435 5.072C52.7942 5.81867 53.1195 6.82133 53.1195 8.08C53.1195 9.33867 52.7942 10.3413 52.1435 11.088C51.5035 11.8347 50.6928 12.208 49.7115 12.208C48.6982 12.208 47.9088 11.8453 47.3435 11.12V15.2H45.7435V4.144H47.3435V5.024C47.9195 4.29867 48.7088 3.936 49.7115 3.936ZM49.3275 10.752C49.9675 10.752 50.4902 10.5067 50.8955 10.016C51.3008 9.51467 51.5035 8.86933 51.5035 8.08C51.5035 7.30133 51.3008 6.66133 50.8955 6.16C50.4902 5.648 49.9675 5.392 49.3275 5.392C48.8902 5.392 48.4902 5.50933 48.1275 5.744C47.7755 5.968 47.5142 6.25067 47.3435 6.592V9.568C47.5248 9.90933 47.7915 10.192 48.1435 10.416C48.4955 10.64 48.8902 10.752 49.3275 10.752ZM61.7828 12V4.144H63.3828V12H61.7828ZM54.7908 12V4.144H56.3908V6.56H58.0068C58.8708 6.56 59.5588 6.81067 60.0708 7.312C60.5828 7.80267 60.8388 8.45867 60.8388 9.28C60.8388 10.08 60.5934 10.736 60.1028 11.248C59.6228 11.7493 58.9508 12 58.0868 12H54.7908ZM56.3908 10.608H57.8307C58.2681 10.608 58.6041 10.4907 58.8388 10.256C59.0841 10.0213 59.2068 9.696 59.2068 9.28C59.2068 8.864 59.0841 8.53867 58.8388 8.304C58.6041 8.06933 58.2681 7.952 57.8307 7.952H56.3908V10.608Z" fill="#2D3355"/>
</svg>
