<svg width="16" height="15" viewBox="0 0 16 15" fill="none" xmlns="http://www.w3.org/2000/svg">
<path d="M14.6915 1.84056C13.864 1.00662 12.7043 0.53212 11.4893 0.530361C10.2734 0.53168 9.11252 1.00593 8.28366 1.84003L8.00117 2.11987L7.71869 1.84003C6.07401 0.180532 3.30572 0.08523 1.53562 1.62712C1.45719 1.69547 1.38143 1.76646 1.30852 1.84003C-0.436174 3.60428 -0.436174 6.33085 1.30852 8.0951L7.58604 14.3014C7.80322 14.5163 8.16515 14.5255 8.39443 14.3219C8.40193 14.3153 8.40924 14.3084 8.41634 14.3014L14.6916 8.0951C16.4361 6.33104 16.4361 3.60462 14.6915 1.84056ZM13.8641 7.3569H13.8636L8.00117 13.1536L2.13825 7.3569C0.805405 6.00885 0.805405 3.92574 2.13825 2.57769C3.34864 1.34781 5.39338 1.2707 6.70525 2.40543C6.76894 2.46053 6.83022 2.51798 6.88899 2.57769L7.58604 3.26711C7.81575 3.48108 8.18663 3.48108 8.41634 3.26711L9.11339 2.57823C10.3238 1.34834 12.3685 1.27123 13.6804 2.40597C13.7441 2.46106 13.8054 2.51851 13.8641 2.57823C15.2086 3.92841 15.2184 6.01532 13.8641 7.3569Z" fill="white"/>
</svg>
