<svg width="14" height="13" viewBox="0 0 14 13" fill="none" xmlns="http://www.w3.org/2000/svg">
<path d="M12.8551 1.59554C12.131 0.872795 11.1163 0.461561 10.0532 0.460037C8.98921 0.46118 7.97345 0.872196 7.2482 1.59508L7.00103 1.83761L6.75385 1.59508C5.31475 0.156852 2.8925 0.0742566 1.34367 1.41056C1.27504 1.4698 1.20875 1.53132 1.14496 1.59508C-0.381652 3.1241 -0.381652 5.48713 1.14496 7.01614L6.63778 12.3949C6.82782 12.5812 7.14451 12.5892 7.34512 12.4127C7.35169 12.407 7.35808 12.401 7.3643 12.3949L12.8551 7.01614C14.3816 5.48729 14.3816 3.1244 12.8551 1.59554ZM12.1311 6.37637H12.1306L7.00103 11.4002L1.87097 6.37637C0.704729 5.20806 0.704729 3.4027 1.87097 2.23439C2.93006 1.16849 4.7192 1.10166 5.86709 2.0851C5.92282 2.13285 5.97645 2.18264 6.02787 2.23439L6.63778 2.83189C6.83878 3.01733 7.1633 3.01733 7.3643 2.83189L7.97421 2.23485C9.0333 1.16896 10.8224 1.10212 11.9703 2.08556C12.0261 2.13331 12.0797 2.1831 12.1311 2.23485C13.3075 3.40501 13.3161 5.21367 12.1311 6.37637Z" fill="#BDBDC0"/>
</svg>
