<svg width="16" height="14" viewBox="0 0 16 14" fill="none" xmlns="http://www.w3.org/2000/svg">
<path d="M14.6915 1.31029C13.864 0.476347 12.7043 0.00184636 11.4893 8.7322e-05C10.2734 0.0014066 9.11252 0.475655 8.28366 1.30975L8.00117 1.5896L7.71869 1.30975C6.07401 -0.349741 3.30575 -0.445043 1.53562 1.09685C1.45719 1.1652 1.38143 1.23619 1.30852 1.30975C-0.436174 3.074 -0.436174 5.80057 1.30852 7.56483L7.58604 13.7711C7.80322 13.9861 8.16515 13.9953 8.39443 13.7917C8.40193 13.785 8.40924 13.7782 8.41634 13.7711L14.6916 7.56483C16.4361 5.80076 16.4361 3.07435 14.6915 1.31029Z" fill="#FFD34E"/>
</svg>
