<svg width="22" height="21" viewBox="0 0 22 21" fill="none" xmlns="http://www.w3.org/2000/svg">
<path d="M20.2009 2.57741C19.0629 1.4099 17.4684 0.745596 15.7978 0.743134C14.1259 0.744981 12.5297 1.40893 11.39 2.57667L11.0016 2.96845L10.6132 2.57667C8.35176 0.253374 4.54536 0.119951 2.11148 2.2786C2.00363 2.37429 1.89947 2.47367 1.79922 2.57667C-0.599739 5.04662 -0.599739 8.86382 1.79922 11.3338L10.4308 20.0226C10.7294 20.3235 11.2271 20.3364 11.5423 20.0513C11.5527 20.042 11.5627 20.0324 11.5725 20.0226L20.2009 11.3338C22.5997 8.86408 22.5997 5.0471 20.2009 2.57741ZM19.0632 10.3003H19.0624L11.0016 18.4157L2.9401 10.3003C1.10743 8.41302 1.10743 5.49667 2.9401 3.6094C4.60438 1.88756 7.41589 1.7796 9.21972 3.36823C9.30729 3.44537 9.39156 3.5258 9.47236 3.6094L10.4308 4.57458C10.7467 4.87415 11.2566 4.87415 11.5725 4.57458L12.5309 3.61014C14.1952 1.88831 17.0067 1.78035 18.8105 3.36898C18.8981 3.44611 18.9824 3.52655 19.0632 3.61014C20.9118 5.50041 20.9253 8.42208 19.0632 10.3003Z" fill="#2D3355"/>
</svg>
