<svg width="21" height="21" viewBox="0 0 21 21" fill="none" xmlns="http://www.w3.org/2000/svg">
<path d="M19.3421 13.8269C18.0626 13.8293 16.791 13.6271 15.5754 13.2278C15.007 13.0293 14.3754 13.163 13.9363 13.5749L11.5511 15.3742C8.98963 14.0882 6.91125 12.0102 5.62472 9.44892L7.37655 7.12123C7.81884 6.67863 7.97702 6.02619 7.78662 5.43018C7.38582 4.21292 7.18247 2.9394 7.18423 1.6579C7.18423 0.742271 6.44196 0 5.52634 0H1.6579C0.742271 0 0 0.742271 0 1.6579C0.0121752 12.3352 8.66479 20.9878 19.3421 21C20.2577 21 21 20.2577 21 19.3421V15.4847C21 14.5691 20.2577 13.8269 19.3421 13.8269Z" fill="#2D3355"/>
</svg>
