<svg width="60" height="60" viewBox="0 0 60 60" fill="none" xmlns="http://www.w3.org/2000/svg">
<g clip-path="url(#clip0)">
<path d="M20 0C11.7157 0 5 6.71575 5 15V26C5.00438 29.8641 8.13587 32.9956 12 33H13V31H12C9.24 30.9967 7.00325 28.76 7 26V15C7 7.82025 12.8203 2 20 2C27.1798 2 33 7.82025 33 15V26C32.9967 28.76 30.76 30.9967 28 31H27V33H28C31.8641 32.9956 34.9956 29.8641 35 26V15C35 6.71575 28.2843 0 20 0Z" fill="#2D3355"/>
<path d="M8.24103 47.1293L8.97203 45.9783L7.28303 44.9062L6.55203 46.0583C4.34116 49.5423 4.50528 54.0283 6.96503 57.3413V60.0003H8.96503V57.0003C8.96516 56.7731 8.88791 56.5526 8.74603 56.3753C6.62003 53.7175 6.41716 50.0028 8.24103 47.1293Z" fill="#2D3355"/>
<path d="M55 0H42C39.24 0.00325 37.0033 2.24 37 5V15C37.0033 17.76 39.24 19.9967 42 20H44V24C43.9999 24.4044 44.2434 24.7691 44.617 24.924C44.7384 24.9746 44.8685 25.0004 45 25C45.2653 25 45.5195 24.8945 45.707 24.707L50.414 20H55C57.76 19.9967 59.9967 17.76 60 15V5C59.9967 2.24 57.76 0.00325 55 0ZM58 15C58 16.6569 56.6569 18 55 18H50C49.7347 18 49.4805 18.1055 49.293 18.293L46 21.586V19C46 18.4478 45.5522 18 45 18H42C40.3431 18 39 16.6569 39 15V5C39 3.34312 40.3431 2 42 2H55C56.6569 2 58 3.34312 58 5V15Z" fill="#2D3355"/>
<path d="M49 5H42V7H49V5Z" fill="#2D3355"/>
<path d="M55 5H51V7H55V5Z" fill="#2D3355"/>
<path d="M55 9H42V11H55V9Z" fill="#2D3355"/>
<path d="M49 13H42V15H49V13Z" fill="#2D3355"/>
<path d="M33.448 46.0583L32.717 44.9062L31.028 45.9783L31.759 47.1303C33.583 50.0034 33.3801 53.7179 31.254 56.3753C31.1121 56.5526 31.0348 56.7731 31.035 57.0003V60.0003H33.035V57.3413C35.4947 54.0283 35.6589 49.5423 33.448 46.0583Z" fill="#2D3355"/>
<path d="M59 33.9996H50C46.248 34.004 43.1667 36.9657 43.014 40.7146L40 46.1406V41.9996C39.9956 38.1355 36.8641 35.004 33 34.9996H29.345L29.318 34.9786L29.3 34.9996H27C25.8954 34.9996 25 34.1042 25 32.9996V30.6466C28.0899 28.8626 29.9953 25.5675 30 21.9996V13.9996C29.9985 12.3428 29.5862 10.7121 28.8 9.25364C28.5481 8.78964 27.9789 8.60126 27.5 8.82364L10.574 16.7876C10.2235 16.9526 9.99988 17.3053 10 17.6926V21.9996C10.0048 25.5675 11.9101 28.8626 15 30.6466V32.9996C15 34.1042 14.1046 34.9996 13 34.9996H7C3.13587 35.004 0.004375 38.1355 0 41.9996V59.9996H2V41.9996C2.00325 39.2396 4.24 37.0029 7 36.9996H10.182L19.187 49.5816C19.372 49.8402 19.669 49.9954 19.987 49.9996H20C20.3148 49.9996 20.6111 49.8514 20.8 49.5996L30.3 36.9996H33C35.76 37.0029 37.9967 39.2396 38 41.9996V49.9996C38.0005 50.5519 38.4486 50.9992 39.0009 50.9987C39.3636 50.9984 39.6978 50.8017 39.874 50.4846L44.588 41.9996H50.321L40.571 59.9996H42.846L52.6 41.9996H53C56.8641 41.9952 59.9956 38.8637 60 34.9996C60 34.4474 59.5522 33.9996 59 33.9996ZM12 21.9996V18.3276L27.441 11.0616C27.8104 11.9971 28 12.9939 28 13.9996V21.9996C28 26.4179 24.4183 29.9996 20 29.9996C15.5817 29.9996 12 26.4179 12 21.9996ZM20.021 47.3116L16.935 42.9996H23.271L20.021 47.3116ZM24.784 40.9996H15.5L12.637 36.9996H13C15.2091 36.9996 17 35.2087 17 32.9996V31.5386C18.9527 32.1533 21.0473 32.1533 23 31.5386V32.9996C23 35.2087 24.7909 36.9996 27 36.9996H27.8L24.784 40.9996ZM53 39.9996H45.1C45.5781 37.673 47.6247 36.0023 50 35.9996H57.9C57.4219 38.3262 55.3753 39.997 53 39.9996Z" fill="#2D3355"/>
</g>
<defs>
<clipPath id="clip0">
<rect width="60" height="60" fill="white"/>
</clipPath>
</defs>
</svg>
