<svg width="57" height="60" viewBox="0 0 57 60" fill="none" xmlns="http://www.w3.org/2000/svg">
<path d="M55.5641 7.2331C55.1887 7.14118 54.7942 7.26053 54.5231 7.54862L49.912 12.4402H47.7013L45.2678 9.78656V7.42744L49.8129 2.57248C50.0818 2.2853 50.1913 1.87238 50.1023 1.47957C50.0136 1.08723 49.739 0.770786 49.3758 0.641833C48.234 0.236681 47.0392 0.0313611 45.824 0.0313611C42.2013 0.0313611 38.9101 1.80927 36.7942 4.90919C34.8139 7.8111 34.2034 11.3674 35.078 14.7709L26.8851 23.3939L13.2355 8.99501V6.169C13.2355 5.75791 13.0304 5.37653 12.6954 5.16527L4.83096 0.198269C4.39301 -0.0783867 3.83297 -0.00567877 3.47235 0.374323L0.326727 3.68459C-0.0338893 4.06459 -0.102971 4.65403 0.159453 5.11497L4.87788 13.3922C5.07861 13.7448 5.44053 13.9602 5.83113 13.9606L8.51534 13.9615L22.1662 28.3604L14.0045 36.9505C10.7707 36.0304 7.39004 36.6738 4.63154 38.7595C1.68795 40.9851 0 44.4481 0 48.2609C0 49.5395 0.195081 50.7975 0.580028 51.9987C0.702985 52.3833 1.00669 52.6737 1.38207 52.7651C1.7579 52.8571 2.15197 52.7377 2.42352 52.4496L7.0342 47.5585H9.25699L11.7896 50.224V52.5635L7.14238 57.4162C6.86866 57.702 6.75526 58.1167 6.84259 58.5123C6.92949 58.9074 7.20538 59.227 7.57078 59.3564C8.71215 59.7616 9.9074 59.9669 11.1222 59.9669C14.7449 59.9669 18.0347 58.1899 20.1498 55.0918C22.1314 52.1885 22.7428 48.6309 21.8686 45.2273L28.4236 38.3283L29.9251 40.0449L29.236 40.7697C28.8015 41.227 28.8015 41.9683 29.236 42.4255C29.6705 42.8824 30.3744 42.8824 30.8093 42.4255L31.4332 41.7689L45.5216 57.8753C45.532 57.8872 45.5429 57.8986 45.5537 57.91C48.1606 60.6537 52.3841 60.6546 54.9923 57.9096C57.5931 55.1709 57.5931 50.7147 54.9923 47.976C54.981 47.9641 54.9693 47.9527 54.9576 47.9413L39.6305 33.1418L40.2474 32.4925C40.6819 32.0356 40.6819 31.2944 40.2474 30.8371C39.813 30.3798 39.1091 30.3798 38.6742 30.8371L37.9899 31.5578L36.3558 29.9792L42.9425 23.0468C43.8788 23.3102 44.8451 23.4438 45.824 23.4438C51.9571 23.4438 56.9462 18.1923 56.9462 11.7378C56.9462 10.4588 56.7511 9.20124 56.3661 7.9995C56.2432 7.61493 55.9395 7.32455 55.5641 7.2331ZM9.76402 11.9641C9.55548 11.7442 9.27263 11.6322 8.97719 11.6322L6.46156 11.6312L2.51389 4.69427L4.43124 2.67628L11.011 6.83206V9.47972C11.011 9.78976 11.1279 10.087 11.336 10.3065L25.3123 25.0497L23.739 26.7051L9.76402 11.9641ZM38.0559 34.799L53.4352 49.6483C55.1531 51.4756 55.1479 54.4342 53.4191 56.2547C51.6864 58.0783 48.8814 58.0838 47.1417 56.2707L33.0073 40.1117L38.0559 34.799ZM36.4153 33.2145L31.4992 38.3877L29.9977 36.6711L34.7813 31.636L36.4153 33.2145ZM45.824 21.1025C44.8512 21.1025 43.8944 20.9383 42.9812 20.6145C42.581 20.4732 42.1387 20.5821 41.8398 20.8962C36.2637 26.765 24.2487 39.4102 19.8244 44.0672C19.5254 44.3818 19.4216 44.8473 19.5567 45.2689C20.4813 48.1585 20.039 51.2406 18.3428 53.7259C16.6514 56.2039 14.0193 57.6256 11.1222 57.6256C10.7968 57.6256 10.4731 57.6068 10.1524 57.5707L13.6852 53.8814C13.8955 53.6619 14.0141 53.3628 14.0141 53.0505V49.7388C14.0141 49.4284 13.8968 49.1307 13.6882 48.9112L10.5039 45.5597C10.2954 45.3403 10.0125 45.2168 9.71754 45.2168H6.57105C6.2743 45.2168 5.99015 45.3416 5.78117 45.5629L2.27623 49.2811C2.24147 48.9436 2.22409 48.603 2.22409 48.2605C2.22409 45.2108 3.57445 42.4411 5.92932 40.6609C8.29028 38.8757 11.2191 38.4097 13.965 39.3832C14.3651 39.5255 14.8074 39.4162 15.1064 39.1016C15.1676 39.0375 37.1062 15.9471 37.1218 15.9306C37.4207 15.616 37.5241 15.1509 37.3894 14.7293C36.4644 11.8398 36.9059 8.75859 38.6008 6.27509C40.2935 3.79479 42.926 2.37265 45.8235 2.37265C46.1589 2.37265 46.4922 2.39231 46.8224 2.43072L43.3631 6.12602C43.158 6.34506 43.0433 6.64 43.0433 6.9473V10.2589C43.0433 10.5626 43.155 10.8539 43.3553 11.072L46.4283 14.4234C46.6377 14.652 46.9267 14.781 47.2286 14.781H50.3751C50.6714 14.781 50.9556 14.6566 51.1646 14.4348L54.6695 10.7171C54.7043 11.0546 54.7216 11.3953 54.7216 11.7378C54.7216 16.9014 50.7301 21.1025 45.824 21.1025Z" fill="#2D3355"/>
</svg>
